<?xml version="1.0" encoding="utf-8"?>
<!-- Generator: Adobe Illustrator 28.3.0, SVG Export Plug-In . SVG Version: 6.00 Build 0)  -->
<svg version="1.1" id="Ebene_1" xmlns="http://www.w3.org/2000/svg" xmlns:xlink="http://www.w3.org/1999/xlink" x="0px" y="0px"
	 viewBox="0 0 500 500" style="enable-background:new 0 0 500 500;" xml:space="preserve">
<style type="text/css">
	.st0{fill:#202143;}
	.st1{fill:#FFFFFF;}
	.st2{fill:none;stroke:#FFFFFF;stroke-width:2.0562;stroke-miterlimit:10;}
	.st3{fill:none;stroke:#FFFFFF;stroke-width:1.7285;stroke-miterlimit:10;}
	.st4{fill:none;stroke:#FFFFFF;stroke-width:1.227;stroke-miterlimit:10;}
	.st5{fill:#FFFFFF;stroke:#202143;stroke-width:2.1563;stroke-miterlimit:10;}
	.st6{stroke:#FFFFFF;stroke-width:1.7285;stroke-miterlimit:10;}
	.st7{fill:#FFFFFF;stroke:#202143;stroke-width:3.9985;stroke-miterlimit:10;}
</style>
<rect x="-0.38" y="1.12" class="st0" width="507.94" height="498.88"/>
<rect x="-0.38" y="1.12" class="st0" width="507.94" height="498.88"/>
<g>
	<path class="st1" d="M156.31,395.05c-1.96-0.98-3.76-2.25-5.44-3.65c-4.27-3.56-7.93-9.76-8.72-15.23
		c-0.92-6.42,4.14-9.65,4.14-12.41c0-1.73-2.76-2.76-5.81-6.45c-2.51-3.03-5.6-5.19-7.97-10.09c-1.51-3.12,0-11.03,3.51-14.15
		c2.22-1.98,5.44-2.07,3.6-2.21c-0.5-0.04-1-0.09-1.52-0.15c-0.1-0.01-0.2-0.03-0.3-0.04c-3-0.44-5.47-2.69-6.2-5.63
		c-0.02-0.07-0.03-0.14-0.05-0.21c-0.52-2.23-0.22-4.6,0.81-6.65c1.36-2.7,2.91-5.16,2.91-9.55c0-5.51-6.95-10.1-10.49-13.05
		c-0.66-0.55-1.41-0.98-2.15-1.42c-4.63-2.74-7.42-7.91-4.68-13.08c9.34-15.3,19.24-27.6,29.72-42.77c0.44-0.64,3.74-5.71,4.25-7.85
		c0.81-2.54,0.8-4.8,0.7-7.16c-0.07-1.9-0.38-3.77-0.65-5.65c-2.04-14.29,12.89-59.4,17.77-67.53
		c6.78-13.47,18.03-27.73,19.49-29.46c20.48-24.3,126.46-65.65,188.25-11.79L229.09,418.13c-2.97-7.33-4.67-11.07-9.1-16.37
		c-3.43-4.11-8.65-6.35-14-6.11C183.86,396.63,168.47,401.11,156.31,395.05z"/>
	<path class="st0" d="M296.72,295.94l5.18,10.69l64.07-133.15h23.58v176.92H365.1v-121.1L307.7,350.53h-11.73l-12.47-26.28
		 M283.49,324.25l-45.06-94.94v121.22h-24.32V173.49h23.33l59.27,122.46"/>
	<path class="st7" d="M296.72,295.94l5.18,10.69l64.07-133.15h23.58v176.92H365.1v-121.1L307.7,350.53h-11.73l-12.47-26.28
		 M283.49,324.25l-45.06-94.94v121.22h-24.32V173.49h23.33l59.27,122.46"/>
</g>
<g>
	<path class="st1" d="M156.31,395.05c-1.96-0.98-3.76-2.25-5.44-3.65c-4.27-3.56-7.93-9.76-8.72-15.23
		c-0.92-6.42,4.14-9.65,4.14-12.41c0-1.73-2.76-2.76-5.81-6.45c-2.51-3.03-5.6-5.19-7.97-10.09c-1.51-3.12,0-11.03,3.51-14.15
		c2.22-1.98,5.44-2.07,3.6-2.21c-0.5-0.04-1-0.09-1.52-0.15c-0.1-0.01-0.2-0.03-0.3-0.04c-3-0.44-5.47-2.69-6.2-5.63
		c-0.02-0.07-0.03-0.14-0.05-0.21c-0.52-2.23-0.22-4.6,0.81-6.65c1.36-2.7,2.91-5.16,2.91-9.55c0-5.51-6.95-10.1-10.49-13.05
		c-0.66-0.55-1.41-0.98-2.15-1.42c-4.63-2.74-7.42-7.91-4.68-13.08c9.34-15.3,19.24-27.6,29.72-42.77c0.44-0.64,3.74-5.71,4.25-7.85
		c0.81-2.54,0.8-4.8,0.7-7.16c-0.07-1.9-0.38-3.77-0.65-5.65c-2.04-14.29,12.89-59.4,17.77-67.53
		c6.78-13.47,18.03-27.73,19.49-29.46c20.48-24.3,126.46-65.65,188.25-11.79L229.09,418.13c-2.97-7.33-4.67-11.07-9.1-16.37
		c-3.43-4.11-8.65-6.35-14-6.11C183.86,396.63,168.47,401.11,156.31,395.05z"/>
	<path class="st0" d="M296.72,295.94l5.18,10.69l64.07-133.15h23.58v176.92H365.1v-121.1L307.7,350.53h-11.73l-12.47-26.28
		 M283.49,324.25l-45.06-94.94v121.22h-24.32V173.49h23.33l59.27,122.46"/>
	<path class="st7" d="M296.72,295.94l5.18,10.69l64.07-133.15h23.58v176.92H365.1v-121.1L307.7,350.53h-11.73l-12.47-26.28
		 M283.49,324.25l-45.06-94.94v121.22h-24.32V173.49h23.33l59.27,122.46"/>
</g>
</svg>
