<?xml version="1.0" encoding="UTF-8"?>
<svg xmlns="http://www.w3.org/2000/svg" xmlns:xlink="http://www.w3.org/1999/xlink" width="60px" height="60px" viewBox="0 0 60 60" version="1.1">
<g id="surface1">
<path style=" stroke:none;fill-rule:nonzero;fill:rgb(12.54902%,12.941177%,26.274511%);fill-opacity:1;" d="M -0.046875 0.132812 L 60.90625 0.132812 L 60.90625 60 L -0.046875 60 Z M -0.046875 0.132812 "/>
<path style=" stroke:none;fill-rule:nonzero;fill:rgb(12.54902%,12.941177%,26.274511%);fill-opacity:1;" d="M -0.046875 0.132812 L 60.90625 0.132812 L 60.90625 60 L -0.046875 60 Z M -0.046875 0.132812 "/>
<path style=" stroke:none;fill-rule:nonzero;fill:rgb(100%,100%,100%);fill-opacity:1;" d="M 18.757812 47.40625 C 18.523438 47.289062 18.304688 47.136719 18.105469 46.96875 C 17.59375 46.539062 17.152344 45.796875 17.058594 45.140625 C 16.949219 44.371094 17.554688 43.980469 17.554688 43.652344 C 17.554688 43.445312 17.222656 43.320312 16.859375 42.878906 C 16.554688 42.511719 16.1875 42.253906 15.902344 41.667969 C 15.71875 41.292969 15.902344 40.34375 16.324219 39.96875 C 16.589844 39.730469 16.976562 39.71875 16.753906 39.703125 C 16.695312 39.699219 16.632812 39.691406 16.570312 39.683594 C 16.558594 39.683594 16.546875 39.679688 16.535156 39.679688 C 16.175781 39.628906 15.878906 39.359375 15.792969 39.003906 C 15.789062 38.996094 15.789062 38.988281 15.785156 38.980469 C 15.722656 38.710938 15.757812 38.425781 15.882812 38.179688 C 16.046875 37.859375 16.230469 37.5625 16.230469 37.035156 C 16.230469 36.375 15.398438 35.824219 14.972656 35.46875 C 14.894531 35.402344 14.804688 35.351562 14.714844 35.300781 C 14.160156 34.96875 13.824219 34.351562 14.152344 33.730469 C 15.273438 31.894531 16.460938 30.417969 17.71875 28.597656 C 17.773438 28.519531 18.167969 27.910156 18.230469 27.65625 C 18.328125 27.351562 18.328125 27.078125 18.3125 26.796875 C 18.304688 26.566406 18.269531 26.34375 18.238281 26.117188 C 17.992188 24.402344 19.78125 18.988281 20.367188 18.015625 C 21.183594 16.398438 22.53125 14.6875 22.707031 14.480469 C 25.164062 11.5625 37.882812 6.601562 45.296875 13.0625 L 27.492188 50.175781 C 27.132812 49.296875 26.929688 48.847656 26.398438 48.210938 C 25.988281 47.71875 25.359375 47.449219 24.71875 47.476562 C 22.0625 47.59375 20.214844 48.132812 18.757812 47.40625 Z M 18.757812 47.40625 "/>
<path style=" stroke:none;fill-rule:nonzero;fill:rgb(12.54902%,12.941177%,26.274511%);fill-opacity:1;" d="M 35.605469 35.511719 L 36.226562 36.796875 L 43.917969 20.816406 L 46.746094 20.816406 L 46.746094 42.046875 L 43.8125 42.046875 L 43.8125 27.515625 L 36.925781 42.0625 L 35.515625 42.0625 L 34.019531 38.910156 M 34.019531 38.910156 L 28.613281 27.515625 L 28.613281 42.0625 L 25.691406 42.0625 L 25.691406 20.820312 L 28.492188 20.820312 L 35.605469 35.515625 "/>
<path style="fill-rule:nonzero;fill:rgb(100%,100%,100%);fill-opacity:1;stroke-width:3.9985;stroke-linecap:butt;stroke-linejoin:miter;stroke:rgb(12.54902%,12.941177%,26.274511%);stroke-opacity:1;stroke-miterlimit:10;" d="M 296.71224 295.93099 L 301.888021 306.640625 L 365.983073 173.470052 L 389.550781 173.470052 L 389.550781 350.390625 L 365.104167 350.390625 L 365.104167 229.296875 L 307.714844 350.520833 L 295.963542 350.520833 L 283.496094 324.251302 M 283.496094 324.251302 L 238.44401 229.296875 L 238.44401 350.520833 L 214.095052 350.520833 L 214.095052 173.502604 L 237.434896 173.502604 L 296.71224 295.963542 " transform="matrix(0.12,0,0,0.12,0,0)"/>
<path style=" stroke:none;fill-rule:nonzero;fill:rgb(100%,100%,100%);fill-opacity:1;" d="M 18.757812 47.40625 C 18.523438 47.289062 18.304688 47.136719 18.105469 46.96875 C 17.59375 46.539062 17.152344 45.796875 17.058594 45.140625 C 16.949219 44.371094 17.554688 43.980469 17.554688 43.652344 C 17.554688 43.445312 17.222656 43.320312 16.859375 42.878906 C 16.554688 42.511719 16.1875 42.253906 15.902344 41.667969 C 15.71875 41.292969 15.902344 40.34375 16.324219 39.96875 C 16.589844 39.730469 16.976562 39.71875 16.753906 39.703125 C 16.695312 39.699219 16.632812 39.691406 16.570312 39.683594 C 16.558594 39.683594 16.546875 39.679688 16.535156 39.679688 C 16.175781 39.628906 15.878906 39.359375 15.792969 39.003906 C 15.789062 38.996094 15.789062 38.988281 15.785156 38.980469 C 15.722656 38.710938 15.757812 38.425781 15.882812 38.179688 C 16.046875 37.859375 16.230469 37.5625 16.230469 37.035156 C 16.230469 36.375 15.398438 35.824219 14.972656 35.46875 C 14.894531 35.402344 14.804688 35.351562 14.714844 35.300781 C 14.160156 34.96875 13.824219 34.351562 14.152344 33.730469 C 15.273438 31.894531 16.460938 30.417969 17.71875 28.597656 C 17.773438 28.519531 18.167969 27.910156 18.230469 27.65625 C 18.328125 27.351562 18.328125 27.078125 18.3125 26.796875 C 18.304688 26.566406 18.269531 26.34375 18.238281 26.117188 C 17.992188 24.402344 19.78125 18.988281 20.367188 18.015625 C 21.183594 16.398438 22.53125 14.6875 22.707031 14.480469 C 25.164062 11.5625 37.882812 6.601562 45.296875 13.0625 L 27.492188 50.175781 C 27.132812 49.296875 26.929688 48.847656 26.398438 48.210938 C 25.988281 47.71875 25.359375 47.449219 24.71875 47.476562 C 22.0625 47.59375 20.214844 48.132812 18.757812 47.40625 Z M 18.757812 47.40625 "/>
<path style=" stroke:none;fill-rule:nonzero;fill:rgb(12.54902%,12.941177%,26.274511%);fill-opacity:1;" d="M 35.605469 35.511719 L 36.226562 36.796875 L 43.917969 20.816406 L 46.746094 20.816406 L 46.746094 42.046875 L 43.8125 42.046875 L 43.8125 27.515625 L 36.925781 42.0625 L 35.515625 42.0625 L 34.019531 38.910156 M 34.019531 38.910156 L 28.613281 27.515625 L 28.613281 42.0625 L 25.691406 42.0625 L 25.691406 20.820312 L 28.492188 20.820312 L 35.605469 35.515625 "/>
<path style="fill-rule:nonzero;fill:rgb(100%,100%,100%);fill-opacity:1;stroke-width:3.9985;stroke-linecap:butt;stroke-linejoin:miter;stroke:rgb(12.54902%,12.941177%,26.274511%);stroke-opacity:1;stroke-miterlimit:10;" d="M 296.71224 295.93099 L 301.888021 306.640625 L 365.983073 173.470052 L 389.550781 173.470052 L 389.550781 350.390625 L 365.104167 350.390625 L 365.104167 229.296875 L 307.714844 350.520833 L 295.963542 350.520833 L 283.496094 324.251302 M 283.496094 324.251302 L 238.44401 229.296875 L 238.44401 350.520833 L 214.095052 350.520833 L 214.095052 173.502604 L 237.434896 173.502604 L 296.71224 295.963542 " transform="matrix(0.12,0,0,0.12,0,0)"/>
</g>
</svg>
